<?xml version="1.0" encoding="utf-8" standalone="no"?>
<!DOCTYPE svg PUBLIC "-//W3C//DTD SVG 1.1//EN"
  "http://www.w3.org/Graphics/SVG/1.1/DTD/svg11.dtd">
<svg xmlns:xlink="http://www.w3.org/1999/xlink" width="720pt" height="288pt" viewBox="0 0 720 288" xmlns="http://www.w3.org/2000/svg" version="1.1">
 <metadata>
  <rdf:RDF xmlns:dc="http://purl.org/dc/elements/1.1/" xmlns:cc="http://creativecommons.org/ns#" xmlns:rdf="http://www.w3.org/1999/02/22-rdf-syntax-ns#">
   <cc:Work>
    <dc:type rdf:resource="http://purl.org/dc/dcmitype/StillImage"/>
    <dc:date>2025-04-25T13:50:05.476874</dc:date>
    <dc:format>image/svg+xml</dc:format>
    <dc:creator>
     <cc:Agent>
      <dc:title>Matplotlib v3.10.0, https://matplotlib.org/</dc:title>
     </cc:Agent>
    </dc:creator>
   </cc:Work>
  </rdf:RDF>
 </metadata>
 <defs>
  <style type="text/css">*{stroke-linejoin: round; stroke-linecap: butt}</style>
 </defs>
 <g id="figure_1">
  <g id="patch_1">
   <path d="M 0 288 
L 720 288 
L 720 0 
L 0 0 
z
" style="fill: #ffffff"/>
  </g>
  <g id="axes_1">
   <g id="patch_2">
    <path d="M 30.49 209.424172 
L 709.2 209.424172 
L 709.2 26.88 
L 30.49 26.88 
z
" style="fill: #ffffff"/>
   </g>
   <g id="patch_3">
    <path d="M 61.340455 209.424172 
L 74.866792 209.424172 
L 74.866792 35.57258 
L 61.340455 35.57258 
z
" clip-path="url(#pa90398e93a)"/>
   </g>
   <g id="patch_4">
    <path d="M 82.150205 209.424172 
L 95.676542 209.424172 
L 95.676542 82.378778 
L 82.150205 82.378778 
z
" clip-path="url(#pa90398e93a)"/>
   </g>
   <g id="patch_5">
    <path d="M 102.959955 209.424172 
L 116.486292 209.424172 
L 116.486292 102.438577 
L 102.959955 102.438577 
z
" clip-path="url(#pa90398e93a)"/>
   </g>
   <g id="patch_6">
    <path d="M 123.769705 209.424172 
L 137.296042 209.424172 
L 137.296042 149.244775 
L 123.769705 149.244775 
z
" clip-path="url(#pa90398e93a)"/>
   </g>
   <g id="patch_7">
    <path d="M 144.579455 209.424172 
L 158.105793 209.424172 
L 158.105793 149.244775 
L 144.579455 149.244775 
z
" clip-path="url(#pa90398e93a)"/>
   </g>
   <g id="patch_8">
    <path d="M 165.389205 209.424172 
L 178.915543 209.424172 
L 178.915543 155.931374 
L 165.389205 155.931374 
z
" clip-path="url(#pa90398e93a)"/>
   </g>
   <g id="patch_9">
    <path d="M 186.198955 209.424172 
L 199.725293 209.424172 
L 199.725293 155.931374 
L 186.198955 155.931374 
z
" clip-path="url(#pa90398e93a)"/>
   </g>
   <g id="patch_10">
    <path d="M 207.008705 209.424172 
L 220.535043 209.424172 
L 220.535043 155.931374 
L 207.008705 155.931374 
z
" clip-path="url(#pa90398e93a)"/>
   </g>
   <g id="patch_11">
    <path d="M 227.818455 209.424172 
L 241.344793 209.424172 
L 241.344793 162.617974 
L 227.818455 162.617974 
z
" clip-path="url(#pa90398e93a)"/>
   </g>
   <g id="patch_12">
    <path d="M 248.628206 209.424172 
L 262.154543 209.424172 
L 262.154543 162.617974 
L 248.628206 162.617974 
z
" clip-path="url(#pa90398e93a)"/>
   </g>
   <g id="patch_13">
    <path d="M 269.437956 209.424172 
L 282.964293 209.424172 
L 282.964293 169.304574 
L 269.437956 169.304574 
z
" clip-path="url(#pa90398e93a)"/>
   </g>
   <g id="patch_14">
    <path d="M 290.247706 209.424172 
L 303.774043 209.424172 
L 303.774043 175.991174 
L 290.247706 175.991174 
z
" clip-path="url(#pa90398e93a)"/>
   </g>
   <g id="patch_15">
    <path d="M 311.057456 209.424172 
L 324.583793 209.424172 
L 324.583793 175.991174 
L 311.057456 175.991174 
z
" clip-path="url(#pa90398e93a)"/>
   </g>
   <g id="patch_16">
    <path d="M 331.867206 209.424172 
L 345.393544 209.424172 
L 345.393544 175.991174 
L 331.867206 175.991174 
z
" clip-path="url(#pa90398e93a)"/>
   </g>
   <g id="patch_17">
    <path d="M 352.676956 209.424172 
L 366.203294 209.424172 
L 366.203294 175.991174 
L 352.676956 175.991174 
z
" clip-path="url(#pa90398e93a)"/>
   </g>
   <g id="patch_18">
    <path d="M 373.486706 209.424172 
L 387.013044 209.424172 
L 387.013044 175.991174 
L 373.486706 175.991174 
z
" clip-path="url(#pa90398e93a)"/>
   </g>
   <g id="patch_19">
    <path d="M 394.296456 209.424172 
L 407.822794 209.424172 
L 407.822794 175.991174 
L 394.296456 175.991174 
z
" clip-path="url(#pa90398e93a)"/>
   </g>
   <g id="patch_20">
    <path d="M 415.106207 209.424172 
L 428.632544 209.424172 
L 428.632544 182.677773 
L 415.106207 182.677773 
z
" clip-path="url(#pa90398e93a)"/>
   </g>
   <g id="patch_21">
    <path d="M 435.915957 209.424172 
L 449.442294 209.424172 
L 449.442294 182.677773 
L 435.915957 182.677773 
z
" clip-path="url(#pa90398e93a)"/>
   </g>
   <g id="patch_22">
    <path d="M 456.725707 209.424172 
L 470.252044 209.424172 
L 470.252044 182.677773 
L 456.725707 182.677773 
z
" clip-path="url(#pa90398e93a)"/>
   </g>
   <g id="patch_23">
    <path d="M 477.535457 209.424172 
L 491.061794 209.424172 
L 491.061794 182.677773 
L 477.535457 182.677773 
z
" clip-path="url(#pa90398e93a)"/>
   </g>
   <g id="patch_24">
    <path d="M 498.345207 209.424172 
L 511.871545 209.424172 
L 511.871545 182.677773 
L 498.345207 182.677773 
z
" clip-path="url(#pa90398e93a)"/>
   </g>
   <g id="patch_25">
    <path d="M 519.154957 209.424172 
L 532.681295 209.424172 
L 532.681295 182.677773 
L 519.154957 182.677773 
z
" clip-path="url(#pa90398e93a)"/>
   </g>
   <g id="patch_26">
    <path d="M 539.964707 209.424172 
L 553.491045 209.424172 
L 553.491045 182.677773 
L 539.964707 182.677773 
z
" clip-path="url(#pa90398e93a)"/>
   </g>
   <g id="patch_27">
    <path d="M 560.774457 209.424172 
L 574.300795 209.424172 
L 574.300795 182.677773 
L 560.774457 182.677773 
z
" clip-path="url(#pa90398e93a)"/>
   </g>
   <g id="patch_28">
    <path d="M 581.584207 209.424172 
L 595.110545 209.424172 
L 595.110545 189.364373 
L 581.584207 189.364373 
z
" clip-path="url(#pa90398e93a)"/>
   </g>
   <g id="patch_29">
    <path d="M 602.393958 209.424172 
L 615.920295 209.424172 
L 615.920295 189.364373 
L 602.393958 189.364373 
z
" clip-path="url(#pa90398e93a)"/>
   </g>
   <g id="patch_30">
    <path d="M 623.203708 209.424172 
L 636.730045 209.424172 
L 636.730045 189.364373 
L 623.203708 189.364373 
z
" clip-path="url(#pa90398e93a)"/>
   </g>
   <g id="patch_31">
    <path d="M 644.013458 209.424172 
L 657.539795 209.424172 
L 657.539795 189.364373 
L 644.013458 189.364373 
z
" clip-path="url(#pa90398e93a)"/>
   </g>
   <g id="patch_32">
    <path d="M 664.823208 209.424172 
L 678.349545 209.424172 
L 678.349545 189.364373 
L 664.823208 189.364373 
z
" clip-path="url(#pa90398e93a)"/>
   </g>
   <g id="matplotlib.axis_1">
    <g id="xtick_1">
     <g id="line2d_1">
      <defs>
       <path id="m7daa7b6070" d="M 0 0 
L 0 3.5 
" style="stroke: #000000; stroke-width: 0.8"/>
      </defs>
      <g>
       <use xlink:href="#m7daa7b6070" x="68.103623" y="209.424172" style="stroke: #000000; stroke-width: 0.8"/>
      </g>
     </g>
     <g id="text_1">
      <!-- c -->
      <g transform="translate(62.74508 225.685061) rotate(-45) scale(0.1 -0.1)">
       <defs>
        <path id="DejaVuSans-63" d="M 3122 3366 
L 3122 2828 
Q 2878 2963 2633 3030 
Q 2388 3097 2138 3097 
Q 1578 3097 1268 2742 
Q 959 2388 959 1747 
Q 959 1106 1268 751 
Q 1578 397 2138 397 
Q 2388 397 2633 464 
Q 2878 531 3122 666 
L 3122 134 
Q 2881 22 2623 -34 
Q 2366 -91 2075 -91 
Q 1284 -91 818 406 
Q 353 903 353 1747 
Q 353 2603 823 3093 
Q 1294 3584 2113 3584 
Q 2378 3584 2631 3529 
Q 2884 3475 3122 3366 
z
" transform="scale(0.015625)"/>
       </defs>
       <use xlink:href="#DejaVuSans-63"/>
      </g>
     </g>
    </g>
    <g id="xtick_2">
     <g id="line2d_2">
      <g>
       <use xlink:href="#m7daa7b6070" x="88.913373" y="209.424172" style="stroke: #000000; stroke-width: 0.8"/>
      </g>
     </g>
     <g id="text_2">
      <!-- arrays -->
      <g transform="translate(65.217562 244.022329) rotate(-45) scale(0.1 -0.1)">
       <defs>
        <path id="DejaVuSans-61" d="M 2194 1759 
Q 1497 1759 1228 1600 
Q 959 1441 959 1056 
Q 959 750 1161 570 
Q 1363 391 1709 391 
Q 2188 391 2477 730 
Q 2766 1069 2766 1631 
L 2766 1759 
L 2194 1759 
z
M 3341 1997 
L 3341 0 
L 2766 0 
L 2766 531 
Q 2569 213 2275 61 
Q 1981 -91 1556 -91 
Q 1019 -91 701 211 
Q 384 513 384 1019 
Q 384 1609 779 1909 
Q 1175 2209 1959 2209 
L 2766 2209 
L 2766 2266 
Q 2766 2663 2505 2880 
Q 2244 3097 1772 3097 
Q 1472 3097 1187 3025 
Q 903 2953 641 2809 
L 641 3341 
Q 956 3463 1253 3523 
Q 1550 3584 1831 3584 
Q 2591 3584 2966 3190 
Q 3341 2797 3341 1997 
z
" transform="scale(0.015625)"/>
        <path id="DejaVuSans-72" d="M 2631 2963 
Q 2534 3019 2420 3045 
Q 2306 3072 2169 3072 
Q 1681 3072 1420 2755 
Q 1159 2438 1159 1844 
L 1159 0 
L 581 0 
L 581 3500 
L 1159 3500 
L 1159 2956 
Q 1341 3275 1631 3429 
Q 1922 3584 2338 3584 
Q 2397 3584 2469 3576 
Q 2541 3569 2628 3553 
L 2631 2963 
z
" transform="scale(0.015625)"/>
        <path id="DejaVuSans-79" d="M 2059 -325 
Q 1816 -950 1584 -1140 
Q 1353 -1331 966 -1331 
L 506 -1331 
L 506 -850 
L 844 -850 
Q 1081 -850 1212 -737 
Q 1344 -625 1503 -206 
L 1606 56 
L 191 3500 
L 800 3500 
L 1894 763 
L 2988 3500 
L 3597 3500 
L 2059 -325 
z
" transform="scale(0.015625)"/>
        <path id="DejaVuSans-73" d="M 2834 3397 
L 2834 2853 
Q 2591 2978 2328 3040 
Q 2066 3103 1784 3103 
Q 1356 3103 1142 2972 
Q 928 2841 928 2578 
Q 928 2378 1081 2264 
Q 1234 2150 1697 2047 
L 1894 2003 
Q 2506 1872 2764 1633 
Q 3022 1394 3022 966 
Q 3022 478 2636 193 
Q 2250 -91 1575 -91 
Q 1294 -91 989 -36 
Q 684 19 347 128 
L 347 722 
Q 666 556 975 473 
Q 1284 391 1588 391 
Q 1994 391 2212 530 
Q 2431 669 2431 922 
Q 2431 1156 2273 1281 
Q 2116 1406 1581 1522 
L 1381 1569 
Q 847 1681 609 1914 
Q 372 2147 372 2553 
Q 372 3047 722 3315 
Q 1072 3584 1716 3584 
Q 2034 3584 2315 3537 
Q 2597 3491 2834 3397 
z
" transform="scale(0.015625)"/>
       </defs>
       <use xlink:href="#DejaVuSans-61"/>
       <use xlink:href="#DejaVuSans-72" transform="translate(61.279297 0)"/>
       <use xlink:href="#DejaVuSans-72" transform="translate(100.642578 0)"/>
       <use xlink:href="#DejaVuSans-61" transform="translate(141.755859 0)"/>
       <use xlink:href="#DejaVuSans-79" transform="translate(203.035156 0)"/>
       <use xlink:href="#DejaVuSans-73" transform="translate(262.214844 0)"/>
      </g>
     </g>
    </g>
    <g id="xtick_3">
     <g id="line2d_3">
      <g>
       <use xlink:href="#m7daa7b6070" x="109.723124" y="209.424172" style="stroke: #000000; stroke-width: 0.8"/>
      </g>
     </g>
     <g id="text_3">
      <!-- string -->
      <g transform="translate(87.955283 242.094358) rotate(-45) scale(0.1 -0.1)">
       <defs>
        <path id="DejaVuSans-74" d="M 1172 4494 
L 1172 3500 
L 2356 3500 
L 2356 3053 
L 1172 3053 
L 1172 1153 
Q 1172 725 1289 603 
Q 1406 481 1766 481 
L 2356 481 
L 2356 0 
L 1766 0 
Q 1100 0 847 248 
Q 594 497 594 1153 
L 594 3053 
L 172 3053 
L 172 3500 
L 594 3500 
L 594 4494 
L 1172 4494 
z
" transform="scale(0.015625)"/>
        <path id="DejaVuSans-69" d="M 603 3500 
L 1178 3500 
L 1178 0 
L 603 0 
L 603 3500 
z
M 603 4863 
L 1178 4863 
L 1178 4134 
L 603 4134 
L 603 4863 
z
" transform="scale(0.015625)"/>
        <path id="DejaVuSans-6e" d="M 3513 2113 
L 3513 0 
L 2938 0 
L 2938 2094 
Q 2938 2591 2744 2837 
Q 2550 3084 2163 3084 
Q 1697 3084 1428 2787 
Q 1159 2491 1159 1978 
L 1159 0 
L 581 0 
L 581 3500 
L 1159 3500 
L 1159 2956 
Q 1366 3272 1645 3428 
Q 1925 3584 2291 3584 
Q 2894 3584 3203 3211 
Q 3513 2838 3513 2113 
z
" transform="scale(0.015625)"/>
        <path id="DejaVuSans-67" d="M 2906 1791 
Q 2906 2416 2648 2759 
Q 2391 3103 1925 3103 
Q 1463 3103 1205 2759 
Q 947 2416 947 1791 
Q 947 1169 1205 825 
Q 1463 481 1925 481 
Q 2391 481 2648 825 
Q 2906 1169 2906 1791 
z
M 3481 434 
Q 3481 -459 3084 -895 
Q 2688 -1331 1869 -1331 
Q 1566 -1331 1297 -1286 
Q 1028 -1241 775 -1147 
L 775 -588 
Q 1028 -725 1275 -790 
Q 1522 -856 1778 -856 
Q 2344 -856 2625 -561 
Q 2906 -266 2906 331 
L 2906 616 
Q 2728 306 2450 153 
Q 2172 0 1784 0 
Q 1141 0 747 490 
Q 353 981 353 1791 
Q 353 2603 747 3093 
Q 1141 3584 1784 3584 
Q 2172 3584 2450 3431 
Q 2728 3278 2906 2969 
L 2906 3500 
L 3481 3500 
L 3481 434 
z
" transform="scale(0.015625)"/>
       </defs>
       <use xlink:href="#DejaVuSans-73"/>
       <use xlink:href="#DejaVuSans-74" transform="translate(52.099609 0)"/>
       <use xlink:href="#DejaVuSans-72" transform="translate(91.308594 0)"/>
       <use xlink:href="#DejaVuSans-69" transform="translate(132.421875 0)"/>
       <use xlink:href="#DejaVuSans-6e" transform="translate(160.205078 0)"/>
       <use xlink:href="#DejaVuSans-67" transform="translate(223.583984 0)"/>
      </g>
     </g>
    </g>
    <g id="xtick_4">
     <g id="line2d_4">
      <g>
       <use xlink:href="#m7daa7b6070" x="130.532874" y="209.424172" style="stroke: #000000; stroke-width: 0.8"/>
      </g>
     </g>
     <g id="text_4">
      <!-- compiler-errors -->
      <g transform="translate(75.385174 275.474218) rotate(-45) scale(0.1 -0.1)">
       <defs>
        <path id="DejaVuSans-6f" d="M 1959 3097 
Q 1497 3097 1228 2736 
Q 959 2375 959 1747 
Q 959 1119 1226 758 
Q 1494 397 1959 397 
Q 2419 397 2687 759 
Q 2956 1122 2956 1747 
Q 2956 2369 2687 2733 
Q 2419 3097 1959 3097 
z
M 1959 3584 
Q 2709 3584 3137 3096 
Q 3566 2609 3566 1747 
Q 3566 888 3137 398 
Q 2709 -91 1959 -91 
Q 1206 -91 779 398 
Q 353 888 353 1747 
Q 353 2609 779 3096 
Q 1206 3584 1959 3584 
z
" transform="scale(0.015625)"/>
        <path id="DejaVuSans-6d" d="M 3328 2828 
Q 3544 3216 3844 3400 
Q 4144 3584 4550 3584 
Q 5097 3584 5394 3201 
Q 5691 2819 5691 2113 
L 5691 0 
L 5113 0 
L 5113 2094 
Q 5113 2597 4934 2840 
Q 4756 3084 4391 3084 
Q 3944 3084 3684 2787 
Q 3425 2491 3425 1978 
L 3425 0 
L 2847 0 
L 2847 2094 
Q 2847 2600 2669 2842 
Q 2491 3084 2119 3084 
Q 1678 3084 1418 2786 
Q 1159 2488 1159 1978 
L 1159 0 
L 581 0 
L 581 3500 
L 1159 3500 
L 1159 2956 
Q 1356 3278 1631 3431 
Q 1906 3584 2284 3584 
Q 2666 3584 2933 3390 
Q 3200 3197 3328 2828 
z
" transform="scale(0.015625)"/>
        <path id="DejaVuSans-70" d="M 1159 525 
L 1159 -1331 
L 581 -1331 
L 581 3500 
L 1159 3500 
L 1159 2969 
Q 1341 3281 1617 3432 
Q 1894 3584 2278 3584 
Q 2916 3584 3314 3078 
Q 3713 2572 3713 1747 
Q 3713 922 3314 415 
Q 2916 -91 2278 -91 
Q 1894 -91 1617 61 
Q 1341 213 1159 525 
z
M 3116 1747 
Q 3116 2381 2855 2742 
Q 2594 3103 2138 3103 
Q 1681 3103 1420 2742 
Q 1159 2381 1159 1747 
Q 1159 1113 1420 752 
Q 1681 391 2138 391 
Q 2594 391 2855 752 
Q 3116 1113 3116 1747 
z
" transform="scale(0.015625)"/>
        <path id="DejaVuSans-6c" d="M 603 4863 
L 1178 4863 
L 1178 0 
L 603 0 
L 603 4863 
z
" transform="scale(0.015625)"/>
        <path id="DejaVuSans-65" d="M 3597 1894 
L 3597 1613 
L 953 1613 
Q 991 1019 1311 708 
Q 1631 397 2203 397 
Q 2534 397 2845 478 
Q 3156 559 3463 722 
L 3463 178 
Q 3153 47 2828 -22 
Q 2503 -91 2169 -91 
Q 1331 -91 842 396 
Q 353 884 353 1716 
Q 353 2575 817 3079 
Q 1281 3584 2069 3584 
Q 2775 3584 3186 3129 
Q 3597 2675 3597 1894 
z
M 3022 2063 
Q 3016 2534 2758 2815 
Q 2500 3097 2075 3097 
Q 1594 3097 1305 2825 
Q 1016 2553 972 2059 
L 3022 2063 
z
" transform="scale(0.015625)"/>
        <path id="DejaVuSans-2d" d="M 313 2009 
L 1997 2009 
L 1997 1497 
L 313 1497 
L 313 2009 
z
" transform="scale(0.015625)"/>
       </defs>
       <use xlink:href="#DejaVuSans-63"/>
       <use xlink:href="#DejaVuSans-6f" transform="translate(54.980469 0)"/>
       <use xlink:href="#DejaVuSans-6d" transform="translate(116.162109 0)"/>
       <use xlink:href="#DejaVuSans-70" transform="translate(213.574219 0)"/>
       <use xlink:href="#DejaVuSans-69" transform="translate(277.050781 0)"/>
       <use xlink:href="#DejaVuSans-6c" transform="translate(304.833984 0)"/>
       <use xlink:href="#DejaVuSans-65" transform="translate(332.617188 0)"/>
       <use xlink:href="#DejaVuSans-72" transform="translate(394.140625 0)"/>
       <use xlink:href="#DejaVuSans-2d" transform="translate(428.878906 0)"/>
       <use xlink:href="#DejaVuSans-65" transform="translate(464.962891 0)"/>
       <use xlink:href="#DejaVuSans-72" transform="translate(526.486328 0)"/>
       <use xlink:href="#DejaVuSans-72" transform="translate(565.849609 0)"/>
       <use xlink:href="#DejaVuSans-6f" transform="translate(604.712891 0)"/>
       <use xlink:href="#DejaVuSans-72" transform="translate(665.894531 0)"/>
       <use xlink:href="#DejaVuSans-73" transform="translate(707.007812 0)"/>
      </g>
     </g>
    </g>
    <g id="xtick_5">
     <g id="line2d_5">
      <g>
       <use xlink:href="#m7daa7b6070" x="151.342624" y="209.424172" style="stroke: #000000; stroke-width: 0.8"/>
      </g>
     </g>
     <g id="text_5">
      <!-- build -->
      <g transform="translate(132.483865 239.185277) rotate(-45) scale(0.1 -0.1)">
       <defs>
        <path id="DejaVuSans-62" d="M 3116 1747 
Q 3116 2381 2855 2742 
Q 2594 3103 2138 3103 
Q 1681 3103 1420 2742 
Q 1159 2381 1159 1747 
Q 1159 1113 1420 752 
Q 1681 391 2138 391 
Q 2594 391 2855 752 
Q 3116 1113 3116 1747 
z
M 1159 2969 
Q 1341 3281 1617 3432 
Q 1894 3584 2278 3584 
Q 2916 3584 3314 3078 
Q 3713 2572 3713 1747 
Q 3713 922 3314 415 
Q 2916 -91 2278 -91 
Q 1894 -91 1617 61 
Q 1341 213 1159 525 
L 1159 0 
L 581 0 
L 581 4863 
L 1159 4863 
L 1159 2969 
z
" transform="scale(0.015625)"/>
        <path id="DejaVuSans-75" d="M 544 1381 
L 544 3500 
L 1119 3500 
L 1119 1403 
Q 1119 906 1312 657 
Q 1506 409 1894 409 
Q 2359 409 2629 706 
Q 2900 1003 2900 1516 
L 2900 3500 
L 3475 3500 
L 3475 0 
L 2900 0 
L 2900 538 
Q 2691 219 2414 64 
Q 2138 -91 1772 -91 
Q 1169 -91 856 284 
Q 544 659 544 1381 
z
M 1991 3584 
L 1991 3584 
z
" transform="scale(0.015625)"/>
        <path id="DejaVuSans-64" d="M 2906 2969 
L 2906 4863 
L 3481 4863 
L 3481 0 
L 2906 0 
L 2906 525 
Q 2725 213 2448 61 
Q 2172 -91 1784 -91 
Q 1150 -91 751 415 
Q 353 922 353 1747 
Q 353 2572 751 3078 
Q 1150 3584 1784 3584 
Q 2172 3584 2448 3432 
Q 2725 3281 2906 2969 
z
M 947 1747 
Q 947 1113 1208 752 
Q 1469 391 1925 391 
Q 2381 391 2643 752 
Q 2906 1113 2906 1747 
Q 2906 2381 2643 2742 
Q 2381 3103 1925 3103 
Q 1469 3103 1208 2742 
Q 947 2381 947 1747 
z
" transform="scale(0.015625)"/>
       </defs>
       <use xlink:href="#DejaVuSans-62"/>
       <use xlink:href="#DejaVuSans-75" transform="translate(63.476562 0)"/>
       <use xlink:href="#DejaVuSans-69" transform="translate(126.855469 0)"/>
       <use xlink:href="#DejaVuSans-6c" transform="translate(154.638672 0)"/>
       <use xlink:href="#DejaVuSans-64" transform="translate(182.421875 0)"/>
      </g>
     </g>
    </g>
    <g id="xtick_6">
     <g id="line2d_6">
      <g>
       <use xlink:href="#m7daa7b6070" x="172.152374" y="209.424172" style="stroke: #000000; stroke-width: 0.8"/>
      </g>
     </g>
     <g id="text_6">
      <!-- windows -->
      <g transform="translate(140.17126 252.307632) rotate(-45) scale(0.1 -0.1)">
       <defs>
        <path id="DejaVuSans-77" d="M 269 3500 
L 844 3500 
L 1563 769 
L 2278 3500 
L 2956 3500 
L 3675 769 
L 4391 3500 
L 4966 3500 
L 4050 0 
L 3372 0 
L 2619 2869 
L 1863 0 
L 1184 0 
L 269 3500 
z
" transform="scale(0.015625)"/>
       </defs>
       <use xlink:href="#DejaVuSans-77"/>
       <use xlink:href="#DejaVuSans-69" transform="translate(81.787109 0)"/>
       <use xlink:href="#DejaVuSans-6e" transform="translate(109.570312 0)"/>
       <use xlink:href="#DejaVuSans-64" transform="translate(172.949219 0)"/>
       <use xlink:href="#DejaVuSans-6f" transform="translate(236.425781 0)"/>
       <use xlink:href="#DejaVuSans-77" transform="translate(297.607422 0)"/>
       <use xlink:href="#DejaVuSans-73" transform="translate(379.394531 0)"/>
      </g>
     </g>
    </g>
    <g id="xtick_7">
     <g id="line2d_7">
      <g>
       <use xlink:href="#m7daa7b6070" x="192.962124" y="209.424172" style="stroke: #000000; stroke-width: 0.8"/>
      </g>
     </g>
     <g id="text_7">
      <!-- struct -->
      <g transform="translate(170.987676 242.300966) rotate(-45) scale(0.1 -0.1)">
       <use xlink:href="#DejaVuSans-73"/>
       <use xlink:href="#DejaVuSans-74" transform="translate(52.099609 0)"/>
       <use xlink:href="#DejaVuSans-72" transform="translate(91.308594 0)"/>
       <use xlink:href="#DejaVuSans-75" transform="translate(132.421875 0)"/>
       <use xlink:href="#DejaVuSans-63" transform="translate(195.800781 0)"/>
       <use xlink:href="#DejaVuSans-74" transform="translate(250.78125 0)"/>
      </g>
     </g>
    </g>
    <g id="xtick_8">
     <g id="line2d_8">
      <g>
       <use xlink:href="#m7daa7b6070" x="213.771874" y="209.424172" style="stroke: #000000; stroke-width: 0.8"/>
      </g>
     </g>
     <g id="text_8">
      <!-- slice -->
      <g transform="translate(196.449968 237.648424) rotate(-45) scale(0.1 -0.1)">
       <use xlink:href="#DejaVuSans-73"/>
       <use xlink:href="#DejaVuSans-6c" transform="translate(52.099609 0)"/>
       <use xlink:href="#DejaVuSans-69" transform="translate(79.882812 0)"/>
       <use xlink:href="#DejaVuSans-63" transform="translate(107.666016 0)"/>
       <use xlink:href="#DejaVuSans-65" transform="translate(162.646484 0)"/>
      </g>
     </g>
    </g>
    <g id="xtick_9">
     <g id="line2d_9">
      <g>
       <use xlink:href="#m7daa7b6070" x="234.581624" y="209.424172" style="stroke: #000000; stroke-width: 0.8"/>
      </g>
     </g>
     <g id="text_9">
      <!-- pointers -->
      <g transform="translate(204.136258 250.771884) rotate(-45) scale(0.1 -0.1)">
       <use xlink:href="#DejaVuSans-70"/>
       <use xlink:href="#DejaVuSans-6f" transform="translate(63.476562 0)"/>
       <use xlink:href="#DejaVuSans-69" transform="translate(124.658203 0)"/>
       <use xlink:href="#DejaVuSans-6e" transform="translate(152.441406 0)"/>
       <use xlink:href="#DejaVuSans-74" transform="translate(215.820312 0)"/>
       <use xlink:href="#DejaVuSans-65" transform="translate(255.029297 0)"/>
       <use xlink:href="#DejaVuSans-72" transform="translate(316.552734 0)"/>
       <use xlink:href="#DejaVuSans-73" transform="translate(357.666016 0)"/>
      </g>
     </g>
    </g>
    <g id="xtick_10">
     <g id="line2d_10">
      <g>
       <use xlink:href="#m7daa7b6070" x="255.391374" y="209.424172" style="stroke: #000000; stroke-width: 0.8"/>
      </g>
     </g>
     <g id="text_10">
      <!-- error-handling -->
      <g transform="translate(204.021172 271.696721) rotate(-45) scale(0.1 -0.1)">
       <defs>
        <path id="DejaVuSans-68" d="M 3513 2113 
L 3513 0 
L 2938 0 
L 2938 2094 
Q 2938 2591 2744 2837 
Q 2550 3084 2163 3084 
Q 1697 3084 1428 2787 
Q 1159 2491 1159 1978 
L 1159 0 
L 581 0 
L 581 4863 
L 1159 4863 
L 1159 2956 
Q 1366 3272 1645 3428 
Q 1925 3584 2291 3584 
Q 2894 3584 3203 3211 
Q 3513 2838 3513 2113 
z
" transform="scale(0.015625)"/>
       </defs>
       <use xlink:href="#DejaVuSans-65"/>
       <use xlink:href="#DejaVuSans-72" transform="translate(61.523438 0)"/>
       <use xlink:href="#DejaVuSans-72" transform="translate(100.886719 0)"/>
       <use xlink:href="#DejaVuSans-6f" transform="translate(139.75 0)"/>
       <use xlink:href="#DejaVuSans-72" transform="translate(200.931641 0)"/>
       <use xlink:href="#DejaVuSans-2d" transform="translate(235.669922 0)"/>
       <use xlink:href="#DejaVuSans-68" transform="translate(271.753906 0)"/>
       <use xlink:href="#DejaVuSans-61" transform="translate(335.132812 0)"/>
       <use xlink:href="#DejaVuSans-6e" transform="translate(396.412109 0)"/>
       <use xlink:href="#DejaVuSans-64" transform="translate(459.791016 0)"/>
       <use xlink:href="#DejaVuSans-6c" transform="translate(523.267578 0)"/>
       <use xlink:href="#DejaVuSans-69" transform="translate(551.050781 0)"/>
       <use xlink:href="#DejaVuSans-6e" transform="translate(578.833984 0)"/>
       <use xlink:href="#DejaVuSans-67" transform="translate(642.212891 0)"/>
      </g>
     </g>
    </g>
    <g id="xtick_11">
     <g id="line2d_11">
      <g>
       <use xlink:href="#m7daa7b6070" x="276.201124" y="209.424172" style="stroke: #000000; stroke-width: 0.8"/>
      </g>
     </g>
     <g id="text_11">
      <!-- compilation -->
      <g transform="translate(233.332776 263.194866) rotate(-45) scale(0.1 -0.1)">
       <use xlink:href="#DejaVuSans-63"/>
       <use xlink:href="#DejaVuSans-6f" transform="translate(54.980469 0)"/>
       <use xlink:href="#DejaVuSans-6d" transform="translate(116.162109 0)"/>
       <use xlink:href="#DejaVuSans-70" transform="translate(213.574219 0)"/>
       <use xlink:href="#DejaVuSans-69" transform="translate(277.050781 0)"/>
       <use xlink:href="#DejaVuSans-6c" transform="translate(304.833984 0)"/>
       <use xlink:href="#DejaVuSans-61" transform="translate(332.617188 0)"/>
       <use xlink:href="#DejaVuSans-74" transform="translate(393.896484 0)"/>
       <use xlink:href="#DejaVuSans-69" transform="translate(433.105469 0)"/>
       <use xlink:href="#DejaVuSans-6f" transform="translate(460.888672 0)"/>
       <use xlink:href="#DejaVuSans-6e" transform="translate(522.070312 0)"/>
      </g>
     </g>
    </g>
    <g id="xtick_12">
     <g id="line2d_12">
      <g>
       <use xlink:href="#m7daa7b6070" x="297.010875" y="209.424172" style="stroke: #000000; stroke-width: 0.8"/>
      </g>
     </g>
     <g id="text_12">
      <!-- casting -->
      <g transform="translate(269.928685 247.408707) rotate(-45) scale(0.1 -0.1)">
       <use xlink:href="#DejaVuSans-63"/>
       <use xlink:href="#DejaVuSans-61" transform="translate(54.980469 0)"/>
       <use xlink:href="#DejaVuSans-73" transform="translate(116.259766 0)"/>
       <use xlink:href="#DejaVuSans-74" transform="translate(168.359375 0)"/>
       <use xlink:href="#DejaVuSans-69" transform="translate(207.568359 0)"/>
       <use xlink:href="#DejaVuSans-6e" transform="translate(235.351562 0)"/>
       <use xlink:href="#DejaVuSans-67" transform="translate(298.730469 0)"/>
      </g>
     </g>
    </g>
    <g id="xtick_13">
     <g id="line2d_13">
      <g>
       <use xlink:href="#m7daa7b6070" x="317.820625" y="209.424172" style="stroke: #000000; stroke-width: 0.8"/>
      </g>
     </g>
     <g id="text_13">
      <!-- metaprog. -->
      <g transform="translate(279.706464 258.440678) rotate(-45) scale(0.1 -0.1)">
       <defs>
        <path id="DejaVuSans-2e" d="M 684 794 
L 1344 794 
L 1344 0 
L 684 0 
L 684 794 
z
" transform="scale(0.015625)"/>
       </defs>
       <use xlink:href="#DejaVuSans-6d"/>
       <use xlink:href="#DejaVuSans-65" transform="translate(97.412109 0)"/>
       <use xlink:href="#DejaVuSans-74" transform="translate(158.935547 0)"/>
       <use xlink:href="#DejaVuSans-61" transform="translate(198.144531 0)"/>
       <use xlink:href="#DejaVuSans-70" transform="translate(259.423828 0)"/>
       <use xlink:href="#DejaVuSans-72" transform="translate(322.900391 0)"/>
       <use xlink:href="#DejaVuSans-6f" transform="translate(361.763672 0)"/>
       <use xlink:href="#DejaVuSans-67" transform="translate(422.945312 0)"/>
       <use xlink:href="#DejaVuSans-2e" transform="translate(486.421875 0)"/>
      </g>
     </g>
    </g>
    <g id="xtick_14">
     <g id="line2d_14">
      <g>
       <use xlink:href="#m7daa7b6070" x="338.630375" y="209.424172" style="stroke: #000000; stroke-width: 0.8"/>
      </g>
     </g>
     <g id="text_14">
      <!-- c++ -->
      <g transform="translate(321.421164 237.535729) rotate(-45) scale(0.1 -0.1)">
       <defs>
        <path id="DejaVuSans-2b" d="M 2944 4013 
L 2944 2272 
L 4684 2272 
L 4684 1741 
L 2944 1741 
L 2944 0 
L 2419 0 
L 2419 1741 
L 678 1741 
L 678 2272 
L 2419 2272 
L 2419 4013 
L 2944 4013 
z
" transform="scale(0.015625)"/>
       </defs>
       <use xlink:href="#DejaVuSans-63"/>
       <use xlink:href="#DejaVuSans-2b" transform="translate(54.980469 0)"/>
       <use xlink:href="#DejaVuSans-2b" transform="translate(138.769531 0)"/>
      </g>
     </g>
    </g>
    <g id="xtick_15">
     <g id="line2d_15">
      <g>
       <use xlink:href="#m7daa7b6070" x="359.440125" y="209.424172" style="stroke: #000000; stroke-width: 0.8"/>
      </g>
     </g>
     <g id="text_15">
      <!-- memory -->
      <g transform="translate(328.424654 251.341989) rotate(-45) scale(0.1 -0.1)">
       <use xlink:href="#DejaVuSans-6d"/>
       <use xlink:href="#DejaVuSans-65" transform="translate(97.412109 0)"/>
       <use xlink:href="#DejaVuSans-6d" transform="translate(158.935547 0)"/>
       <use xlink:href="#DejaVuSans-6f" transform="translate(256.347656 0)"/>
       <use xlink:href="#DejaVuSans-72" transform="translate(317.529297 0)"/>
       <use xlink:href="#DejaVuSans-79" transform="translate(358.642578 0)"/>
      </g>
     </g>
    </g>
    <g id="xtick_16">
     <g id="line2d_16">
      <g>
       <use xlink:href="#m7daa7b6070" x="380.249875" y="209.424172" style="stroke: #000000; stroke-width: 0.8"/>
      </g>
     </g>
     <g id="text_16">
      <!-- types -->
      <g transform="translate(359.298522 241.277871) rotate(-45) scale(0.1 -0.1)">
       <use xlink:href="#DejaVuSans-74"/>
       <use xlink:href="#DejaVuSans-79" transform="translate(39.208984 0)"/>
       <use xlink:href="#DejaVuSans-70" transform="translate(98.388672 0)"/>
       <use xlink:href="#DejaVuSans-65" transform="translate(161.865234 0)"/>
       <use xlink:href="#DejaVuSans-73" transform="translate(223.388672 0)"/>
      </g>
     </g>
    </g>
    <g id="xtick_17">
     <g id="line2d_17">
      <g>
       <use xlink:href="#m7daa7b6070" x="401.059625" y="209.424172" style="stroke: #000000; stroke-width: 0.8"/>
      </g>
     </g>
     <g id="text_17">
      <!-- cmd-line-args -->
      <g transform="translate(351.172137 270.214006) rotate(-45) scale(0.1 -0.1)">
       <use xlink:href="#DejaVuSans-63"/>
       <use xlink:href="#DejaVuSans-6d" transform="translate(54.980469 0)"/>
       <use xlink:href="#DejaVuSans-64" transform="translate(152.392578 0)"/>
       <use xlink:href="#DejaVuSans-2d" transform="translate(215.869141 0)"/>
       <use xlink:href="#DejaVuSans-6c" transform="translate(251.953125 0)"/>
       <use xlink:href="#DejaVuSans-69" transform="translate(279.736328 0)"/>
       <use xlink:href="#DejaVuSans-6e" transform="translate(307.519531 0)"/>
       <use xlink:href="#DejaVuSans-65" transform="translate(370.898438 0)"/>
       <use xlink:href="#DejaVuSans-2d" transform="translate(432.421875 0)"/>
       <use xlink:href="#DejaVuSans-61" transform="translate(468.505859 0)"/>
       <use xlink:href="#DejaVuSans-72" transform="translate(529.785156 0)"/>
       <use xlink:href="#DejaVuSans-67" transform="translate(569.148438 0)"/>
       <use xlink:href="#DejaVuSans-73" transform="translate(632.625 0)"/>
      </g>
     </g>
    </g>
    <g id="xtick_18">
     <g id="line2d_18">
      <g>
       <use xlink:href="#m7daa7b6070" x="421.869375" y="209.424172" style="stroke: #000000; stroke-width: 0.8"/>
      </g>
     </g>
     <g id="text_18">
      <!-- compile-time -->
      <g transform="translate(374.001561 268.194332) rotate(-45) scale(0.1 -0.1)">
       <use xlink:href="#DejaVuSans-63"/>
       <use xlink:href="#DejaVuSans-6f" transform="translate(54.980469 0)"/>
       <use xlink:href="#DejaVuSans-6d" transform="translate(116.162109 0)"/>
       <use xlink:href="#DejaVuSans-70" transform="translate(213.574219 0)"/>
       <use xlink:href="#DejaVuSans-69" transform="translate(277.050781 0)"/>
       <use xlink:href="#DejaVuSans-6c" transform="translate(304.833984 0)"/>
       <use xlink:href="#DejaVuSans-65" transform="translate(332.617188 0)"/>
       <use xlink:href="#DejaVuSans-2d" transform="translate(394.140625 0)"/>
       <use xlink:href="#DejaVuSans-74" transform="translate(430.224609 0)"/>
       <use xlink:href="#DejaVuSans-69" transform="translate(469.433594 0)"/>
       <use xlink:href="#DejaVuSans-6d" transform="translate(497.216797 0)"/>
       <use xlink:href="#DejaVuSans-65" transform="translate(594.628906 0)"/>
      </g>
     </g>
    </g>
    <g id="xtick_19">
     <g id="line2d_19">
      <g>
       <use xlink:href="#m7daa7b6070" x="442.679125" y="209.424172" style="stroke: #000000; stroke-width: 0.8"/>
      </g>
     </g>
     <g id="text_19">
      <!-- webassembly -->
      <g transform="translate(393.008189 269.997455) rotate(-45) scale(0.1 -0.1)">
       <use xlink:href="#DejaVuSans-77"/>
       <use xlink:href="#DejaVuSans-65" transform="translate(81.787109 0)"/>
       <use xlink:href="#DejaVuSans-62" transform="translate(143.310547 0)"/>
       <use xlink:href="#DejaVuSans-61" transform="translate(206.787109 0)"/>
       <use xlink:href="#DejaVuSans-73" transform="translate(268.066406 0)"/>
       <use xlink:href="#DejaVuSans-73" transform="translate(320.166016 0)"/>
       <use xlink:href="#DejaVuSans-65" transform="translate(372.265625 0)"/>
       <use xlink:href="#DejaVuSans-6d" transform="translate(433.789062 0)"/>
       <use xlink:href="#DejaVuSans-62" transform="translate(531.201172 0)"/>
       <use xlink:href="#DejaVuSans-6c" transform="translate(594.677734 0)"/>
       <use xlink:href="#DejaVuSans-79" transform="translate(622.460938 0)"/>
      </g>
     </g>
    </g>
    <g id="xtick_20">
     <g id="line2d_20">
      <g>
       <use xlink:href="#m7daa7b6070" x="463.488876" y="209.424172" style="stroke: #000000; stroke-width: 0.8"/>
      </g>
     </g>
     <g id="text_20">
      <!-- buffer -->
      <g transform="translate(440.81174 243.003653) rotate(-45) scale(0.1 -0.1)">
       <defs>
        <path id="DejaVuSans-66" d="M 2375 4863 
L 2375 4384 
L 1825 4384 
Q 1516 4384 1395 4259 
Q 1275 4134 1275 3809 
L 1275 3500 
L 2222 3500 
L 2222 3053 
L 1275 3053 
L 1275 0 
L 697 0 
L 697 3053 
L 147 3053 
L 147 3500 
L 697 3500 
L 697 3744 
Q 697 4328 969 4595 
Q 1241 4863 1831 4863 
L 2375 4863 
z
" transform="scale(0.015625)"/>
       </defs>
       <use xlink:href="#DejaVuSans-62"/>
       <use xlink:href="#DejaVuSans-75" transform="translate(63.476562 0)"/>
       <use xlink:href="#DejaVuSans-66" transform="translate(126.855469 0)"/>
       <use xlink:href="#DejaVuSans-66" transform="translate(162.060547 0)"/>
       <use xlink:href="#DejaVuSans-65" transform="translate(197.265625 0)"/>
       <use xlink:href="#DejaVuSans-72" transform="translate(258.789062 0)"/>
      </g>
     </g>
    </g>
    <g id="xtick_21">
     <g id="line2d_21">
      <g>
       <use xlink:href="#m7daa7b6070" x="484.298626" y="209.424172" style="stroke: #000000; stroke-width: 0.8"/>
      </g>
     </g>
     <g id="text_21">
      <!-- assembly -->
      <g transform="translate(449.250436 255.374707) rotate(-45) scale(0.1 -0.1)">
       <use xlink:href="#DejaVuSans-61"/>
       <use xlink:href="#DejaVuSans-73" transform="translate(61.279297 0)"/>
       <use xlink:href="#DejaVuSans-73" transform="translate(113.378906 0)"/>
       <use xlink:href="#DejaVuSans-65" transform="translate(165.478516 0)"/>
       <use xlink:href="#DejaVuSans-6d" transform="translate(227.001953 0)"/>
       <use xlink:href="#DejaVuSans-62" transform="translate(324.414062 0)"/>
       <use xlink:href="#DejaVuSans-6c" transform="translate(387.890625 0)"/>
       <use xlink:href="#DejaVuSans-79" transform="translate(415.673828 0)"/>
      </g>
     </g>
    </g>
    <g id="xtick_22">
     <g id="line2d_22">
      <g>
       <use xlink:href="#m7daa7b6070" x="505.108376" y="209.424172" style="stroke: #000000; stroke-width: 0.8"/>
      </g>
     </g>
     <g id="text_22">
      <!-- linker -->
      <g transform="translate(484.131611 241.303282) rotate(-45) scale(0.1 -0.1)">
       <defs>
        <path id="DejaVuSans-6b" d="M 581 4863 
L 1159 4863 
L 1159 1991 
L 2875 3500 
L 3609 3500 
L 1753 1863 
L 3688 0 
L 2938 0 
L 1159 1709 
L 1159 0 
L 581 0 
L 581 4863 
z
" transform="scale(0.015625)"/>
       </defs>
       <use xlink:href="#DejaVuSans-6c"/>
       <use xlink:href="#DejaVuSans-69" transform="translate(27.783203 0)"/>
       <use xlink:href="#DejaVuSans-6e" transform="translate(55.566406 0)"/>
       <use xlink:href="#DejaVuSans-6b" transform="translate(118.945312 0)"/>
       <use xlink:href="#DejaVuSans-65" transform="translate(173.230469 0)"/>
       <use xlink:href="#DejaVuSans-72" transform="translate(234.753906 0)"/>
      </g>
     </g>
    </g>
    <g id="xtick_23">
     <g id="line2d_23">
      <g>
       <use xlink:href="#m7daa7b6070" x="525.918126" y="209.424172" style="stroke: #000000; stroke-width: 0.8"/>
      </g>
     </g>
     <g id="text_23">
      <!-- io -->
      <g transform="translate(518.156524 228.088119) rotate(-45) scale(0.1 -0.1)">
       <use xlink:href="#DejaVuSans-69"/>
       <use xlink:href="#DejaVuSans-6f" transform="translate(27.783203 0)"/>
      </g>
     </g>
    </g>
    <g id="xtick_24">
     <g id="line2d_24">
      <g>
       <use xlink:href="#m7daa7b6070" x="546.727876" y="209.424172" style="stroke: #000000; stroke-width: 0.8"/>
      </g>
     </g>
     <g id="text_24">
      <!-- mem-manag. -->
      <g transform="translate(497.80824 269.246154) rotate(-45) scale(0.1 -0.1)">
       <use xlink:href="#DejaVuSans-6d"/>
       <use xlink:href="#DejaVuSans-65" transform="translate(97.412109 0)"/>
       <use xlink:href="#DejaVuSans-6d" transform="translate(158.935547 0)"/>
       <use xlink:href="#DejaVuSans-2d" transform="translate(256.347656 0)"/>
       <use xlink:href="#DejaVuSans-6d" transform="translate(292.431641 0)"/>
       <use xlink:href="#DejaVuSans-61" transform="translate(389.84375 0)"/>
       <use xlink:href="#DejaVuSans-6e" transform="translate(451.123047 0)"/>
       <use xlink:href="#DejaVuSans-61" transform="translate(514.501953 0)"/>
       <use xlink:href="#DejaVuSans-67" transform="translate(575.78125 0)"/>
       <use xlink:href="#DejaVuSans-2e" transform="translate(639.257812 0)"/>
      </g>
     </g>
    </g>
    <g id="xtick_25">
     <g id="line2d_25">
      <g>
       <use xlink:href="#m7daa7b6070" x="567.537626" y="209.424172" style="stroke: #000000; stroke-width: 0.8"/>
      </g>
     </g>
     <g id="text_25">
      <!-- arraylist -->
      <g transform="translate(537.140873 250.72327) rotate(-45) scale(0.1 -0.1)">
       <use xlink:href="#DejaVuSans-61"/>
       <use xlink:href="#DejaVuSans-72" transform="translate(61.279297 0)"/>
       <use xlink:href="#DejaVuSans-72" transform="translate(100.642578 0)"/>
       <use xlink:href="#DejaVuSans-61" transform="translate(141.755859 0)"/>
       <use xlink:href="#DejaVuSans-79" transform="translate(203.035156 0)"/>
       <use xlink:href="#DejaVuSans-6c" transform="translate(262.214844 0)"/>
       <use xlink:href="#DejaVuSans-69" transform="translate(289.998047 0)"/>
       <use xlink:href="#DejaVuSans-73" transform="translate(317.78125 0)"/>
       <use xlink:href="#DejaVuSans-74" transform="translate(369.880859 0)"/>
      </g>
     </g>
    </g>
    <g id="xtick_26">
     <g id="line2d_26">
      <g>
       <use xlink:href="#m7daa7b6070" x="588.347376" y="209.424172" style="stroke: #000000; stroke-width: 0.8"/>
      </g>
     </g>
     <g id="text_26">
      <!-- function -->
      <g transform="translate(557.992608 250.681286) rotate(-45) scale(0.1 -0.1)">
       <use xlink:href="#DejaVuSans-66"/>
       <use xlink:href="#DejaVuSans-75" transform="translate(35.205078 0)"/>
       <use xlink:href="#DejaVuSans-6e" transform="translate(98.583984 0)"/>
       <use xlink:href="#DejaVuSans-63" transform="translate(161.962891 0)"/>
       <use xlink:href="#DejaVuSans-74" transform="translate(216.943359 0)"/>
       <use xlink:href="#DejaVuSans-69" transform="translate(256.152344 0)"/>
       <use xlink:href="#DejaVuSans-6f" transform="translate(283.935547 0)"/>
       <use xlink:href="#DejaVuSans-6e" transform="translate(345.117188 0)"/>
      </g>
     </g>
    </g>
    <g id="xtick_27">
     <g id="line2d_27">
      <g>
       <use xlink:href="#m7daa7b6070" x="609.157126" y="209.424172" style="stroke: #000000; stroke-width: 0.8"/>
      </g>
     </g>
     <g id="text_27">
      <!-- heap-memory -->
      <g transform="translate(557.936079 271.547565) rotate(-45) scale(0.1 -0.1)">
       <use xlink:href="#DejaVuSans-68"/>
       <use xlink:href="#DejaVuSans-65" transform="translate(63.378906 0)"/>
       <use xlink:href="#DejaVuSans-61" transform="translate(124.902344 0)"/>
       <use xlink:href="#DejaVuSans-70" transform="translate(186.181641 0)"/>
       <use xlink:href="#DejaVuSans-2d" transform="translate(249.658203 0)"/>
       <use xlink:href="#DejaVuSans-6d" transform="translate(285.742188 0)"/>
       <use xlink:href="#DejaVuSans-65" transform="translate(383.154297 0)"/>
       <use xlink:href="#DejaVuSans-6d" transform="translate(444.677734 0)"/>
       <use xlink:href="#DejaVuSans-6f" transform="translate(542.089844 0)"/>
       <use xlink:href="#DejaVuSans-72" transform="translate(603.271484 0)"/>
       <use xlink:href="#DejaVuSans-79" transform="translate(644.384766 0)"/>
      </g>
     </g>
    </g>
    <g id="xtick_28">
     <g id="line2d_28">
      <g>
       <use xlink:href="#m7daa7b6070" x="629.966876" y="209.424172" style="stroke: #000000; stroke-width: 0.8"/>
      </g>
     </g>
     <g id="text_28">
      <!-- hashmap -->
      <g transform="translate(595.80699 254.486404) rotate(-45) scale(0.1 -0.1)">
       <use xlink:href="#DejaVuSans-68"/>
       <use xlink:href="#DejaVuSans-61" transform="translate(63.378906 0)"/>
       <use xlink:href="#DejaVuSans-73" transform="translate(124.658203 0)"/>
       <use xlink:href="#DejaVuSans-68" transform="translate(176.757812 0)"/>
       <use xlink:href="#DejaVuSans-6d" transform="translate(240.136719 0)"/>
       <use xlink:href="#DejaVuSans-61" transform="translate(337.548828 0)"/>
       <use xlink:href="#DejaVuSans-70" transform="translate(398.828125 0)"/>
      </g>
     </g>
    </g>
    <g id="xtick_29">
     <g id="line2d_29">
      <g>
       <use xlink:href="#m7daa7b6070" x="650.776627" y="209.424172" style="stroke: #000000; stroke-width: 0.8"/>
      </g>
     </g>
     <g id="text_29">
      <!-- llvm -->
      <g transform="translate(634.304353 236.798791) rotate(-45) scale(0.1 -0.1)">
       <defs>
        <path id="DejaVuSans-76" d="M 191 3500 
L 800 3500 
L 1894 563 
L 2988 3500 
L 3597 3500 
L 2284 0 
L 1503 0 
L 191 3500 
z
" transform="scale(0.015625)"/>
       </defs>
       <use xlink:href="#DejaVuSans-6c"/>
       <use xlink:href="#DejaVuSans-6c" transform="translate(27.783203 0)"/>
       <use xlink:href="#DejaVuSans-76" transform="translate(55.566406 0)"/>
       <use xlink:href="#DejaVuSans-6d" transform="translate(114.746094 0)"/>
      </g>
     </g>
    </g>
    <g id="xtick_30">
     <g id="line2d_30">
      <g>
       <use xlink:href="#m7daa7b6070" x="671.586377" y="209.424172" style="stroke: #000000; stroke-width: 0.8"/>
      </g>
     </g>
     <g id="text_30">
      <!-- clang -->
      <g transform="translate(650.959851 240.953043) rotate(-45) scale(0.1 -0.1)">
       <use xlink:href="#DejaVuSans-63"/>
       <use xlink:href="#DejaVuSans-6c" transform="translate(54.980469 0)"/>
       <use xlink:href="#DejaVuSans-61" transform="translate(82.763672 0)"/>
       <use xlink:href="#DejaVuSans-6e" transform="translate(144.042969 0)"/>
       <use xlink:href="#DejaVuSans-67" transform="translate(207.421875 0)"/>
      </g>
     </g>
    </g>
   </g>
   <g id="matplotlib.axis_2">
    <g id="ytick_1">
     <g id="line2d_31">
      <defs>
       <path id="med0c21ae1b" d="M 0 0 
L -3.5 0 
" style="stroke: #000000; stroke-width: 0.8"/>
      </defs>
      <g>
       <use xlink:href="#med0c21ae1b" x="30.49" y="209.424172" style="stroke: #000000; stroke-width: 0.8"/>
      </g>
     </g>
     <g id="text_31">
      <!-- 0 -->
      <g transform="translate(17.1275 213.223391) scale(0.1 -0.1)">
       <defs>
        <path id="DejaVuSans-30" d="M 2034 4250 
Q 1547 4250 1301 3770 
Q 1056 3291 1056 2328 
Q 1056 1369 1301 889 
Q 1547 409 2034 409 
Q 2525 409 2770 889 
Q 3016 1369 3016 2328 
Q 3016 3291 2770 3770 
Q 2525 4250 2034 4250 
z
M 2034 4750 
Q 2819 4750 3233 4129 
Q 3647 3509 3647 2328 
Q 3647 1150 3233 529 
Q 2819 -91 2034 -91 
Q 1250 -91 836 529 
Q 422 1150 422 2328 
Q 422 3509 836 4129 
Q 1250 4750 2034 4750 
z
" transform="scale(0.015625)"/>
       </defs>
       <use xlink:href="#DejaVuSans-30"/>
      </g>
     </g>
    </g>
    <g id="ytick_2">
     <g id="line2d_32">
      <g>
       <use xlink:href="#med0c21ae1b" x="30.49" y="175.991174" style="stroke: #000000; stroke-width: 0.8"/>
      </g>
     </g>
     <g id="text_32">
      <!-- 5 -->
      <g transform="translate(17.1275 179.790392) scale(0.1 -0.1)">
       <defs>
        <path id="DejaVuSans-35" d="M 691 4666 
L 3169 4666 
L 3169 4134 
L 1269 4134 
L 1269 2991 
Q 1406 3038 1543 3061 
Q 1681 3084 1819 3084 
Q 2600 3084 3056 2656 
Q 3513 2228 3513 1497 
Q 3513 744 3044 326 
Q 2575 -91 1722 -91 
Q 1428 -91 1123 -41 
Q 819 9 494 109 
L 494 744 
Q 775 591 1075 516 
Q 1375 441 1709 441 
Q 2250 441 2565 725 
Q 2881 1009 2881 1497 
Q 2881 1984 2565 2268 
Q 2250 2553 1709 2553 
Q 1456 2553 1204 2497 
Q 953 2441 691 2322 
L 691 4666 
z
" transform="scale(0.015625)"/>
       </defs>
       <use xlink:href="#DejaVuSans-35"/>
      </g>
     </g>
    </g>
    <g id="ytick_3">
     <g id="line2d_33">
      <g>
       <use xlink:href="#med0c21ae1b" x="30.49" y="142.558175" style="stroke: #000000; stroke-width: 0.8"/>
      </g>
     </g>
     <g id="text_33">
      <!-- 10 -->
      <g transform="translate(10.765 146.357394) scale(0.1 -0.1)">
       <defs>
        <path id="DejaVuSans-31" d="M 794 531 
L 1825 531 
L 1825 4091 
L 703 3866 
L 703 4441 
L 1819 4666 
L 2450 4666 
L 2450 531 
L 3481 531 
L 3481 0 
L 794 0 
L 794 531 
z
" transform="scale(0.015625)"/>
       </defs>
       <use xlink:href="#DejaVuSans-31"/>
       <use xlink:href="#DejaVuSans-30" transform="translate(63.623047 0)"/>
      </g>
     </g>
    </g>
    <g id="ytick_4">
     <g id="line2d_34">
      <g>
       <use xlink:href="#med0c21ae1b" x="30.49" y="109.125176" style="stroke: #000000; stroke-width: 0.8"/>
      </g>
     </g>
     <g id="text_34">
      <!-- 15 -->
      <g transform="translate(10.765 112.924395) scale(0.1 -0.1)">
       <use xlink:href="#DejaVuSans-31"/>
       <use xlink:href="#DejaVuSans-35" transform="translate(63.623047 0)"/>
      </g>
     </g>
    </g>
    <g id="ytick_5">
     <g id="line2d_35">
      <g>
       <use xlink:href="#med0c21ae1b" x="30.49" y="75.692178" style="stroke: #000000; stroke-width: 0.8"/>
      </g>
     </g>
     <g id="text_35">
      <!-- 20 -->
      <g transform="translate(10.765 79.491397) scale(0.1 -0.1)">
       <defs>
        <path id="DejaVuSans-32" d="M 1228 531 
L 3431 531 
L 3431 0 
L 469 0 
L 469 531 
Q 828 903 1448 1529 
Q 2069 2156 2228 2338 
Q 2531 2678 2651 2914 
Q 2772 3150 2772 3378 
Q 2772 3750 2511 3984 
Q 2250 4219 1831 4219 
Q 1534 4219 1204 4116 
Q 875 4013 500 3803 
L 500 4441 
Q 881 4594 1212 4672 
Q 1544 4750 1819 4750 
Q 2544 4750 2975 4387 
Q 3406 4025 3406 3419 
Q 3406 3131 3298 2873 
Q 3191 2616 2906 2266 
Q 2828 2175 2409 1742 
Q 1991 1309 1228 531 
z
" transform="scale(0.015625)"/>
       </defs>
       <use xlink:href="#DejaVuSans-32"/>
       <use xlink:href="#DejaVuSans-30" transform="translate(63.623047 0)"/>
      </g>
     </g>
    </g>
    <g id="ytick_6">
     <g id="line2d_36">
      <g>
       <use xlink:href="#med0c21ae1b" x="30.49" y="42.259179" style="stroke: #000000; stroke-width: 0.8"/>
      </g>
     </g>
     <g id="text_36">
      <!-- 25 -->
      <g transform="translate(10.765 46.058398) scale(0.1 -0.1)">
       <use xlink:href="#DejaVuSans-32"/>
       <use xlink:href="#DejaVuSans-35" transform="translate(63.623047 0)"/>
      </g>
     </g>
    </g>
   </g>
   <g id="patch_33">
    <path d="M 30.49 209.424172 
L 30.49 26.88 
" style="fill: none; stroke: #000000; stroke-width: 0.8; stroke-linejoin: miter; stroke-linecap: square"/>
   </g>
   <g id="patch_34">
    <path d="M 709.2 209.424172 
L 709.2 26.88 
" style="fill: none; stroke: #000000; stroke-width: 0.8; stroke-linejoin: miter; stroke-linecap: square"/>
   </g>
   <g id="patch_35">
    <path d="M 30.49 209.424172 
L 709.2 209.424172 
" style="fill: none; stroke: #000000; stroke-width: 0.8; stroke-linejoin: miter; stroke-linecap: square"/>
   </g>
   <g id="patch_36">
    <path d="M 30.49 26.88 
L 709.2 26.88 
" style="fill: none; stroke: #000000; stroke-width: 0.8; stroke-linejoin: miter; stroke-linecap: square"/>
   </g>
   <g id="text_37">
    <!-- Najpopularniejsze tagi dla języka Zig -->
    <g transform="translate(259.444063 20.88) scale(0.12 -0.12)">
     <defs>
      <path id="DejaVuSans-4e" d="M 628 4666 
L 1478 4666 
L 3547 763 
L 3547 4666 
L 4159 4666 
L 4159 0 
L 3309 0 
L 1241 3903 
L 1241 0 
L 628 0 
L 628 4666 
z
" transform="scale(0.015625)"/>
      <path id="DejaVuSans-6a" d="M 603 3500 
L 1178 3500 
L 1178 -63 
Q 1178 -731 923 -1031 
Q 669 -1331 103 -1331 
L -116 -1331 
L -116 -844 
L 38 -844 
Q 366 -844 484 -692 
Q 603 -541 603 -63 
L 603 3500 
z
M 603 4863 
L 1178 4863 
L 1178 4134 
L 603 4134 
L 603 4863 
z
" transform="scale(0.015625)"/>
      <path id="DejaVuSans-7a" d="M 353 3500 
L 3084 3500 
L 3084 2975 
L 922 459 
L 3084 459 
L 3084 0 
L 275 0 
L 275 525 
L 2438 3041 
L 353 3041 
L 353 3500 
z
" transform="scale(0.015625)"/>
      <path id="DejaVuSans-20" transform="scale(0.015625)"/>
      <path id="DejaVuSans-119" d="M 3597 1894 
L 3597 1613 
L 953 1613 
Q 991 1019 1311 708 
Q 1631 397 2203 397 
Q 2534 397 2845 478 
Q 3156 559 3463 722 
L 3463 178 
Q 3153 47 2828 -22 
Q 2503 -91 2169 -91 
Q 1331 -91 842 396 
Q 353 884 353 1716 
Q 353 2575 817 3079 
Q 1281 3584 2069 3584 
Q 2775 3584 3186 3129 
Q 3597 2675 3597 1894 
z
M 3022 2063 
Q 3016 2534 2758 2815 
Q 2500 3097 2075 3097 
Q 1594 3097 1305 2825 
Q 1016 2553 972 2059 
L 3022 2063 
z
M 2551 0 
L 2923 0 
Q 2782 -191 2715 -328 
Q 2648 -466 2648 -563 
Q 2648 -706 2734 -778 
Q 2820 -850 2989 -850 
Q 3089 -850 3185 -826 
Q 3282 -803 3379 -756 
L 3379 -1172 
Q 3260 -1203 3154 -1218 
Q 3048 -1234 2954 -1234 
Q 2573 -1234 2393 -1098 
Q 2214 -963 2214 -672 
Q 2214 -522 2296 -358 
Q 2379 -194 2551 0 
z
" transform="scale(0.015625)"/>
      <path id="DejaVuSans-5a" d="M 359 4666 
L 4025 4666 
L 4025 4184 
L 1075 531 
L 4097 531 
L 4097 0 
L 288 0 
L 288 481 
L 3238 4134 
L 359 4134 
L 359 4666 
z
" transform="scale(0.015625)"/>
     </defs>
     <use xlink:href="#DejaVuSans-4e"/>
     <use xlink:href="#DejaVuSans-61" transform="translate(74.804688 0)"/>
     <use xlink:href="#DejaVuSans-6a" transform="translate(136.083984 0)"/>
     <use xlink:href="#DejaVuSans-70" transform="translate(163.867188 0)"/>
     <use xlink:href="#DejaVuSans-6f" transform="translate(227.34375 0)"/>
     <use xlink:href="#DejaVuSans-70" transform="translate(288.525391 0)"/>
     <use xlink:href="#DejaVuSans-75" transform="translate(352.001953 0)"/>
     <use xlink:href="#DejaVuSans-6c" transform="translate(415.380859 0)"/>
     <use xlink:href="#DejaVuSans-61" transform="translate(443.164062 0)"/>
     <use xlink:href="#DejaVuSans-72" transform="translate(504.443359 0)"/>
     <use xlink:href="#DejaVuSans-6e" transform="translate(543.806641 0)"/>
     <use xlink:href="#DejaVuSans-69" transform="translate(607.185547 0)"/>
     <use xlink:href="#DejaVuSans-65" transform="translate(634.96875 0)"/>
     <use xlink:href="#DejaVuSans-6a" transform="translate(696.492188 0)"/>
     <use xlink:href="#DejaVuSans-73" transform="translate(724.275391 0)"/>
     <use xlink:href="#DejaVuSans-7a" transform="translate(776.375 0)"/>
     <use xlink:href="#DejaVuSans-65" transform="translate(828.865234 0)"/>
     <use xlink:href="#DejaVuSans-20" transform="translate(890.388672 0)"/>
     <use xlink:href="#DejaVuSans-74" transform="translate(922.175781 0)"/>
     <use xlink:href="#DejaVuSans-61" transform="translate(961.384766 0)"/>
     <use xlink:href="#DejaVuSans-67" transform="translate(1022.664062 0)"/>
     <use xlink:href="#DejaVuSans-69" transform="translate(1086.140625 0)"/>
     <use xlink:href="#DejaVuSans-20" transform="translate(1113.923828 0)"/>
     <use xlink:href="#DejaVuSans-64" transform="translate(1145.710938 0)"/>
     <use xlink:href="#DejaVuSans-6c" transform="translate(1209.1875 0)"/>
     <use xlink:href="#DejaVuSans-61" transform="translate(1236.970703 0)"/>
     <use xlink:href="#DejaVuSans-20" transform="translate(1298.25 0)"/>
     <use xlink:href="#DejaVuSans-6a" transform="translate(1330.037109 0)"/>
     <use xlink:href="#DejaVuSans-119" transform="translate(1357.820312 0)"/>
     <use xlink:href="#DejaVuSans-7a" transform="translate(1419.34375 0)"/>
     <use xlink:href="#DejaVuSans-79" transform="translate(1471.833984 0)"/>
     <use xlink:href="#DejaVuSans-6b" transform="translate(1531.013672 0)"/>
     <use xlink:href="#DejaVuSans-61" transform="translate(1587.173828 0)"/>
     <use xlink:href="#DejaVuSans-20" transform="translate(1648.453125 0)"/>
     <use xlink:href="#DejaVuSans-5a" transform="translate(1680.240234 0)"/>
     <use xlink:href="#DejaVuSans-69" transform="translate(1748.746094 0)"/>
     <use xlink:href="#DejaVuSans-67" transform="translate(1776.529297 0)"/>
    </g>
   </g>
  </g>
 </g>
 <defs>
  <clipPath id="pa90398e93a">
   <rect x="30.49" y="26.88" width="678.71" height="182.544172"/>
  </clipPath>
 </defs>
</svg>
